{
    "asset" : {
        "generator" : "Khronos glTF Blender I/O v3.2.43",
        "version" : "2.0"
    },
    "scene" : 0,
    "scenes" : [
        {
            "name" : "Scene",
            "nodes" : [
                0
            ]
        }
    ],
    "nodes" : [
        {
            "mesh" : 0,
            "name" : "004 - Charmander",
            "rotation" : [
                0.7071068286895752,
                0,
                0,
                0.7071067094802856
            ]
        }
    ],
    "materials" : [
        {
            "doubleSided" : true,
            "name" : "Material 004 - Charmander",
            "pbrMetallicRoughness" : {
                "baseColorTexture" : {
                    "index" : 0
                },
                "metallicFactor" : 0,
                "roughnessFactor" : 0.6837722063064575
            }
        }
    ],
    "meshes" : [
        {
            "name" : "004 - Charmander",
            "primitives" : [
                {
                    "attributes" : {
                        "POSITION" : 0,
                        "NORMAL" : 1,
                        "TEXCOORD_0" : 2
                    },
                    "indices" : 3,
                    "material" : 0
                }
            ]
        }
    ],
    "textures" : [
        {
            "sampler" : 0,
            "source" : 0
        }
    ],
    "images" : [
        {
            "bufferView" : 4,
            "mimeType" : "image/png",
            "name" : "004 - Charmander"
        }
    ],
    "accessors" : [
        {
            "bufferView" : 0,
            "componentType" : 5126,
            "count" : 1869,
            "max" : [
                0.6565099954605103,
                0.47679001092910767,
                0
            ],
            "min" : [
                -0.6565099954605103,
                -0.8291000127792358,
                -1.8711999654769897
            ],
            "type" : "VEC3"
        },
        {
            "bufferView" : 1,
            "componentType" : 5126,
            "count" : 1869,
            "type" : "VEC3"
        },
        {
            "bufferView" : 2,
            "componentType" : 5126,
            "count" : 1869,
            "type" : "VEC2"
        },
        {
            "bufferView" : 3,
            "componentType" : 5123,
            "count" : 2328,
            "type" : "SCALAR"
        }
    ],
    "bufferViews" : [
        {
            "buffer" : 0,
            "byteLength" : 22428,
            "byteOffset" : 0
        },
        {
            "buffer" : 0,
            "byteLength" : 22428,
            "byteOffset" : 22428
        },
        {
            "buffer" : 0,
            "byteLength" : 14952,
            "byteOffset" : 44856
        },
        {
            "buffer" : 0,
            "byteLength" : 4656,
            "byteOffset" : 59808
        },
        {
            "buffer" : 0,
            "byteLength" : 2585,
            "byteOffset" : 64464
        }
    ],
    "samplers" : [
        {
            "magFilter" : 9729,
            "minFilter" : 9987
        }
    ],
    "buffers" : [
        {
            "byteLength" : 67052,
            "uri" : "data:application/octet-stream;base64,"
        }
    ]
}
