{
    "asset" : {
        "generator" : "Khronos glTF Blender I/O v3.2.43",
        "version" : "2.0"
    },
    "scene" : 0,
    "scenes" : [
        {
            "name" : "Scene",
            "nodes" : [
                0
            ]
        }
    ],
    "nodes" : [
        {
            "mesh" : 0,
            "name" : "052 - Meowth",
            "rotation" : [
                0.7071068286895752,
                0,
                0,
                0.7071067094802856
            ]
        }
    ],
    "materials" : [
        {
            "doubleSided" : true,
            "name" : "Material 052 - Meowth",
            "pbrMetallicRoughness" : {
                "baseColorTexture" : {
                    "index" : 0
                },
                "metallicFactor" : 0,
                "roughnessFactor" : 0.6837722063064575
            }
        }
    ],
    "meshes" : [
        {
            "name" : "052 - Meowth",
            "primitives" : [
                {
                    "attributes" : {
                        "POSITION" : 0,
                        "NORMAL" : 1,
                        "TEXCOORD_0" : 2
                    },
                    "indices" : 3,
                    "material" : 0
                }
            ]
        }
    ],
    "textures" : [
        {
            "sampler" : 0,
            "source" : 0
        }
    ],
    "images" : [
        {
            "bufferView" : 4,
            "mimeType" : "image/png",
            "name" : "052 - Meowth"
        }
    ],
    "accessors" : [
        {
            "bufferView" : 0,
            "componentType" : 5126,
            "count" : 1976,
            "max" : [
                1.0373799800872803,
                0.5071200132369995,
                0
            ],
            "min" : [
                -1.0373799800872803,
                -0.8018400073051453,
                -2.289249897003174
            ],
            "type" : "VEC3"
        },
        {
            "bufferView" : 1,
            "componentType" : 5126,
            "count" : 1976,
            "type" : "VEC3"
        },
        {
            "bufferView" : 2,
            "componentType" : 5126,
            "count" : 1976,
            "type" : "VEC2"
        },
        {
            "bufferView" : 3,
            "componentType" : 5123,
            "count" : 2376,
            "type" : "SCALAR"
        }
    ],
    "bufferViews" : [
        {
            "buffer" : 0,
            "byteLength" : 23712,
            "byteOffset" : 0
        },
        {
            "buffer" : 0,
            "byteLength" : 23712,
            "byteOffset" : 23712
        },
        {
            "buffer" : 0,
            "byteLength" : 15808,
            "byteOffset" : 47424
        },
        {
            "buffer" : 0,
            "byteLength" : 4752,
            "byteOffset" : 63232
        },
        {
            "buffer" : 0,
            "byteLength" : 2666,
            "byteOffset" : 67984
        }
    ],
    "samplers" : [
        {
            "magFilter" : 9729,
            "minFilter" : 9987
        }
    ],
    "buffers" : [
        {
            "byteLength" : 70652,
            "uri" : "data:application/octet-stream;base64,"
        }
    ]
}
