{
    "asset" : {
        "generator" : "Khronos glTF Blender I/O v3.2.43",
        "version" : "2.0"
    },
    "scene" : 0,
    "scenes" : [
        {
            "name" : "Scene",
            "nodes" : [
                0
            ]
        }
    ],
    "nodes" : [
        {
            "mesh" : 0,
            "name" : "135 - Jolteon",
            "rotation" : [
                0.7071068286895752,
                0,
                0,
                0.7071067094802856
            ]
        }
    ],
    "materials" : [
        {
            "doubleSided" : true,
            "name" : "Material 135 - Jolteon",
            "pbrMetallicRoughness" : {
                "baseColorTexture" : {
                    "index" : 0
                },
                "metallicFactor" : 0,
                "roughnessFactor" : 0.6837722063064575
            }
        }
    ],
    "meshes" : [
        {
            "name" : "135 - Jolteon",
            "primitives" : [
                {
                    "attributes" : {
                        "POSITION" : 0,
                        "NORMAL" : 1,
                        "TEXCOORD_0" : 2
                    },
                    "indices" : 3,
                    "material" : 0
                }
            ]
        }
    ],
    "textures" : [
        {
            "sampler" : 0,
            "source" : 0
        }
    ],
    "images" : [
        {
            "bufferView" : 4,
            "mimeType" : "image/png",
            "name" : "135 - Jolteon"
        }
    ],
    "accessors" : [
        {
            "bufferView" : 0,
            "componentType" : 5126,
            "count" : 2156,
            "max" : [
                0.7442200183868408,
                0.8498899936676025,
                1.2576500355370536e-17
            ],
            "min" : [
                -0.7442200183868408,
                -1.2274999618530273,
                -2.028510093688965
            ],
            "type" : "VEC3"
        },
        {
            "bufferView" : 1,
            "componentType" : 5126,
            "count" : 2156,
            "type" : "VEC3"
        },
        {
            "bufferView" : 2,
            "componentType" : 5126,
            "count" : 2156,
            "type" : "VEC2"
        },
        {
            "bufferView" : 3,
            "componentType" : 5123,
            "count" : 2520,
            "type" : "SCALAR"
        }
    ],
    "bufferViews" : [
        {
            "buffer" : 0,
            "byteLength" : 25872,
            "byteOffset" : 0
        },
        {
            "buffer" : 0,
            "byteLength" : 25872,
            "byteOffset" : 25872
        },
        {
            "buffer" : 0,
            "byteLength" : 17248,
            "byteOffset" : 51744
        },
        {
            "buffer" : 0,
            "byteLength" : 5040,
            "byteOffset" : 68992
        },
        {
            "buffer" : 0,
            "byteLength" : 2554,
            "byteOffset" : 74032
        }
    ],
    "samplers" : [
        {
            "magFilter" : 9729,
            "minFilter" : 9987
        }
    ],
    "buffers" : [
        {
            "byteLength" : 76588,
            "uri" : "data:application/octet-stream;base64,"
        }
    ]
}
