{
    "asset" : {
        "generator" : "Khronos glTF Blender I/O v3.2.43",
        "version" : "2.0"
    },
    "scene" : 0,
    "scenes" : [
        {
            "name" : "Scene",
            "nodes" : [
                0
            ]
        }
    ],
    "nodes" : [
        {
            "mesh" : 0,
            "name" : "134 - Vaporeon",
            "rotation" : [
                0.7071068286895752,
                0,
                0,
                0.7071067094802856
            ]
        }
    ],
    "materials" : [
        {
            "doubleSided" : true,
            "name" : "Material 134 - Vaporeon",
            "pbrMetallicRoughness" : {
                "baseColorTexture" : {
                    "index" : 0
                },
                "metallicFactor" : 0,
                "roughnessFactor" : 0.6837722063064575
            }
        }
    ],
    "meshes" : [
        {
            "name" : "134 - Vaporeon",
            "primitives" : [
                {
                    "attributes" : {
                        "POSITION" : 0,
                        "NORMAL" : 1,
                        "TEXCOORD_0" : 2
                    },
                    "indices" : 3,
                    "material" : 0
                }
            ]
        }
    ],
    "textures" : [
        {
            "sampler" : 0,
            "source" : 0
        }
    ],
    "images" : [
        {
            "bufferView" : 4,
            "mimeType" : "image/png",
            "name" : "134 - Vaporeon"
        }
    ],
    "accessors" : [
        {
            "bufferView" : 0,
            "componentType" : 5126,
            "count" : 1855,
            "max" : [
                0.8913499712944031,
                1.138200044631958,
                4.0145298588684976e-17
            ],
            "min" : [
                -0.8913499712944031,
                -1.0334800481796265,
                -2.40474009513855
            ],
            "type" : "VEC3"
        },
        {
            "bufferView" : 1,
            "componentType" : 5126,
            "count" : 1855,
            "type" : "VEC3"
        },
        {
            "bufferView" : 2,
            "componentType" : 5126,
            "count" : 1855,
            "type" : "VEC2"
        },
        {
            "bufferView" : 3,
            "componentType" : 5123,
            "count" : 2190,
            "type" : "SCALAR"
        }
    ],
    "bufferViews" : [
        {
            "buffer" : 0,
            "byteLength" : 22260,
            "byteOffset" : 0
        },
        {
            "buffer" : 0,
            "byteLength" : 22260,
            "byteOffset" : 22260
        },
        {
            "buffer" : 0,
            "byteLength" : 14840,
            "byteOffset" : 44520
        },
        {
            "buffer" : 0,
            "byteLength" : 4380,
            "byteOffset" : 59360
        },
        {
            "buffer" : 0,
            "byteLength" : 2601,
            "byteOffset" : 63740
        }
    ],
    "samplers" : [
        {
            "magFilter" : 9729,
            "minFilter" : 9987
        }
    ],
    "buffers" : [
        {
            "byteLength" : 66344,
            "uri" : "data:application/octet-stream;base64,"
        }
    ]
}
